<svg width="34" height="34" viewBox="0 0 34 34" fill="none" xmlns="http://www.w3.org/2000/svg">
<circle cx="17" cy="17" r="17" fill="black"/>
<path d="M9 25H13V14H9V25Z" fill="#B9FF66"/>
<path d="M9 10C9 11.1156 9.83489 12 11 12C12.1121 12 13 11.1156 13 10C13 8.88437 12.1121 8 11 8C9.83489 8 9 8.88437 9 10Z" fill="#B9FF66"/>
<path d="M22 25H26V19C26 15.9719 25.5483 13 22 13C20.3053 13 18.4766 14.0969 18 15V14H15V25H19V19C19 17.5125 19.1464 17 21 17C22.8006 17 22 17.725 22 19V25Z" fill="#B9FF66"/>
</svg>
